<svg xmlns="http://www.w3.org/2000/svg" width="960" height="360" viewBox="0 0 960 360" role="img" aria-labelledby="title desc">
  <title id="title">TMM Skill</title>
  <desc id="desc">TMM skill card showing multilayer stacks, polarization, and Berreman modeling.</desc>
  <defs><linearGradient id="bg" x1="0" y1="0" x2="1" y2="1"><stop offset="0" stop-color="#f7f4ff"/><stop offset="1" stop-color="#f4fbff"/></linearGradient></defs>
  <rect width="960" height="360" rx="22" fill="url(#bg)"/>
  <g transform="translate(88 64)">
    <path d="M0 88 L185 88" stroke="#e1a23a" stroke-width="7" stroke-linecap="round"/>
    <path d="M315 88 L500 88" stroke="#37b7aa" stroke-width="7" stroke-linecap="round"/>
    <path d="M315 88 L480 148" stroke="#8f7ae5" stroke-width="6" stroke-linecap="round"/>
    <g stroke="#26364a" stroke-width="3">
      <rect x="190" y="20" width="42" height="170" fill="#ffffff"/>
      <rect x="232" y="20" width="42" height="170" fill="#dff4f0"/>
      <rect x="274" y="20" width="42" height="170" fill="#e9e2fb"/>
      <rect x="316" y="20" width="42" height="170" fill="#fff1cf"/>
    </g>
    <path d="M144 35 C162 55 162 75 144 95 C126 115 126 135 144 155" fill="none" stroke="#4776d0" stroke-width="5"/>
    <path d="M414 32 C432 54 432 74 414 96 C396 118 396 138 414 160" fill="none" stroke="#37b7aa" stroke-width="5"/>
  </g>
  <text x="600" y="104" font-family="Segoe UI, Arial, sans-serif" font-size="34" font-weight="800" fill="#203246">TMM Skill</text>
  <text x="600" y="145" font-family="Segoe UI, Arial, sans-serif" font-size="18" fill="#536575">Transfer-matrix and Berreman modeling for layered optics.</text>
  <g font-family="Segoe UI, Arial, sans-serif" font-size="15" fill="#26364a">
    <rect x="600" y="184" width="250" height="34" rx="17" fill="#ffffff" stroke="#dbc8f2"/><text x="620" y="207">2x2 TMM decision rules</text>
    <rect x="600" y="232" width="250" height="34" rx="17" fill="#ffffff" stroke="#87d6cf"/><text x="620" y="255">4x4 Berreman anisotropy</text>
    <rect x="600" y="280" width="250" height="34" rx="17" fill="#ffffff" stroke="#bfd8ec"/><text x="620" y="303">Polarization conventions</text>
  </g>
</svg>